<svg width="13" height="12" viewBox="0 0 13 12" fill="none" xmlns="http://www.w3.org/2000/svg">
<path d="M11.3818 3.78096C11.6226 3.78096 11.8539 3.81665 12.0714 3.88277V3.78096C12.0714 2.73688 11.225 1.89048 10.1809 1.89048H7.73676C7.61141 1.89048 7.4912 1.84069 7.40257 1.75205L6.06579 0.415282C5.79989 0.149381 5.43925 0 5.06321 0H2.61903C1.57494 0 0.728546 0.846397 0.728546 1.89048V3.88275C0.946 3.81665 1.17737 3.78096 1.41807 3.78096H11.3818Z" fill="#FCFADA" style="fill:#FCFADA;fill:color(display-p3 0.9882 0.9804 0.8549);fill-opacity:1;"/>
<path d="M1.41813 4.7262C0.555289 4.7262 -0.107507 5.49041 0.0145166 6.34457L0.554654 10.1255C0.654441 10.824 1.25267 11.3429 1.95826 11.3429H10.8417C11.5473 11.3429 12.1456 10.824 12.2453 10.1255L12.7855 6.34458C12.9075 5.49041 12.2447 4.7262 11.3819 4.7262H1.41813Z" fill="#FCFADA" style="fill:#FCFADA;fill:color(display-p3 0.9882 0.9804 0.8549);fill-opacity:1;"/>
</svg>
