<svg width="17" height="17" viewBox="0 0 17 17" fill="none" xmlns="http://www.w3.org/2000/svg">
<path fill-rule="evenodd" clip-rule="evenodd" d="M8.4 16.8C13.0392 16.8 16.8 13.0392 16.8 8.4C16.8 3.76081 13.0392 0 8.4 0C3.76081 0 0 3.76081 0 8.4C0 13.0392 3.76081 16.8 8.4 16.8ZM2.44838 6.32878C2.84069 5.20129 3.54436 4.21957 4.45642 3.48658C4.7377 3.91614 5.22322 4.19991 5.77502 4.19991C6.64486 4.19991 7.35002 4.90506 7.35002 5.77491V6.29991C7.35002 7.4597 8.29022 8.39991 9.45002 8.39991C10.6098 8.39991 11.55 7.4597 11.55 6.29991C11.55 5.31278 12.2311 4.48473 13.149 4.26005C14.1149 5.36719 14.7 6.81523 14.7 8.39992C14.7 8.75773 14.6702 9.10857 14.6129 9.4501H13.65C12.4902 9.4501 11.55 10.3903 11.55 11.5501V13.8571C10.6233 14.3931 9.5474 14.6999 8.39991 14.6999V12.6C8.39991 11.4402 7.45971 10.5 6.29991 10.5C5.14011 10.5 4.19991 9.5598 4.19991 8.4C4.19991 7.35892 3.44233 6.49477 2.44838 6.32878Z" fill="#FCFADA" style="fill:#FCFADA;fill:color(display-p3 0.9882 0.9804 0.8549);fill-opacity:1;"/>
</svg>
